<svg width="1322" height="390" viewBox="0 0 1322 390" fill="none" xmlns="http://www.w3.org/2000/svg">
<path d="M286.714 255.723C281.269 252.927 275.309 250.499 268.835 248.44C262.361 246.381 256.033 245.35 249.853 245.35C241.317 245.35 234.474 247.336 229.325 251.309C224.321 255.282 221.82 260.579 221.82 267.2C221.82 272.203 223.438 276.47 226.676 280.001C229.914 283.384 234.181 286.329 239.478 288.829C244.776 291.33 250.294 293.685 256.033 295.892C261.037 297.805 265.966 299.937 270.822 302.292C275.678 304.647 280.02 307.589 283.845 311.121C287.818 314.652 290.908 318.993 293.116 324.142C295.471 329.292 296.647 335.692 296.647 343.344C296.647 351.731 294.513 359.383 290.246 366.297C286.125 373.212 280.165 378.657 272.367 382.63C264.569 386.603 255.298 388.589 244.555 388.589C237.492 388.589 230.722 387.779 224.248 386.161C217.92 384.543 212.034 382.482 206.59 379.981C201.145 377.333 196.289 374.611 192.021 371.815L201.513 355.041C205.044 357.542 209.091 359.97 213.653 362.325C218.215 364.532 222.996 366.37 228 367.842C233.004 369.167 237.86 369.829 242.568 369.829C247.572 369.829 252.501 368.946 257.357 367.18C262.361 365.267 266.48 362.398 269.718 358.573C272.956 354.748 274.574 349.672 274.574 343.344C274.574 337.899 273.102 333.412 270.16 329.881C267.363 326.202 263.611 323.112 258.902 320.611C254.194 317.963 249.19 315.608 243.893 313.548C238.889 311.635 233.812 309.576 228.662 307.369C223.513 305.014 218.73 302.22 214.315 298.982C209.9 295.598 206.369 291.478 203.72 286.622C201.071 281.767 199.747 275.88 199.747 268.966C199.747 260.579 201.733 253.295 205.707 247.116C209.827 240.788 215.419 235.86 222.482 232.328C229.545 228.649 237.64 226.663 246.762 226.369C257.064 226.369 266.114 227.621 273.912 230.121C281.858 232.622 288.849 235.712 294.881 239.391L286.714 255.723ZM365.522 389.03C356.986 389.03 349.188 387.192 342.124 383.513C335.209 379.833 329.69 374.464 325.569 367.401C321.596 360.19 319.61 351.437 319.61 341.137C319.61 330.984 321.744 322.229 326.011 314.873C330.278 307.369 335.944 301.63 343.007 297.658C350.218 293.685 358.09 291.698 366.625 291.698C375.161 291.698 382.37 293.685 388.257 297.658C394.144 301.482 398.631 306.044 401.721 311.341L400.397 314.873L402.383 295.451H421.366V386.823H400.838V362.987L403.046 368.284C402.456 369.756 401.132 371.667 399.072 374.022C397.159 376.229 394.51 378.509 391.126 380.864C387.888 383.219 384.136 385.205 379.869 386.823C375.602 388.295 370.819 389.03 365.522 389.03ZM371.04 372.036C376.189 372.036 380.825 371.08 384.946 369.167C389.067 367.253 392.451 364.605 395.099 361.221C397.896 357.69 399.807 353.496 400.838 348.641V330.764C399.662 326.35 397.6 322.525 394.658 319.287C391.716 315.903 388.184 313.328 384.063 311.562C379.942 309.649 375.382 308.693 370.378 308.693C364.932 308.693 359.93 310.017 355.368 312.666C350.805 315.314 347.128 318.993 344.331 323.701C341.683 328.409 340.358 333.926 340.358 340.254C340.358 346.14 341.756 351.51 344.552 356.366C347.349 361.221 351.101 365.046 355.809 367.842C360.518 370.639 365.594 372.036 371.04 372.036ZM475.211 295.451L476.977 315.976L476.094 314.211C479.478 307.296 484.261 301.851 490.441 297.878C496.77 293.906 503.979 291.919 512.073 291.919C517.222 291.919 521.785 292.729 525.758 294.347C529.731 295.965 532.969 298.32 535.47 301.41C538.119 304.352 539.812 308.031 540.547 312.445L539.443 313.107C542.975 306.486 547.831 301.337 554.011 297.658C560.34 293.833 566.962 291.919 573.877 291.919C582.854 291.919 589.918 294.495 595.067 299.644C600.365 304.647 603.086 311.194 603.234 319.287V386.823H582.706V326.57C582.558 321.863 581.382 317.963 579.175 314.873C577.115 311.635 573.436 309.869 568.138 309.576C562.841 309.576 558.057 311.194 553.791 314.431C549.67 317.669 546.434 321.863 544.079 327.012C541.723 332.015 540.474 337.458 540.326 343.344V386.823H519.798V326.57C519.65 321.863 518.401 317.963 516.046 314.873C513.839 311.635 510.086 309.869 504.789 309.576C499.343 309.576 494.562 311.194 490.441 314.431C486.32 317.669 483.084 321.863 480.729 327.012C478.522 332.161 477.418 337.678 477.418 343.565V386.823H456.89V295.451H475.211ZM797.037 295.451L799.024 321.935L797.92 318.404C800.273 312.814 803.659 308.104 808.073 304.279C812.634 300.306 817.344 297.289 822.2 295.23C827.202 293.023 831.544 291.919 835.223 291.919L834.12 312.224C827.202 311.783 821.097 313.107 815.799 316.197C810.647 319.287 806.528 323.407 803.438 328.557C800.494 333.706 799.024 339.223 799.024 345.11V386.823H778.716V295.451H797.037ZM849.88 340.254C849.88 331.132 852.012 322.891 856.281 315.535C860.695 308.179 866.728 302.365 874.381 298.099C882.031 293.833 890.715 291.698 900.427 291.698C910.433 291.698 919.189 293.833 926.694 298.099C934.198 302.365 940.01 308.179 944.131 315.535C948.25 322.891 950.312 331.132 950.312 340.254C950.312 349.376 948.25 357.69 944.131 365.194C940.01 372.55 934.123 378.364 926.473 382.63C918.968 386.896 910.212 389.03 900.206 389.03C890.494 389.03 881.81 387.044 874.16 383.071C866.655 378.951 860.695 373.287 856.281 366.077C852.012 358.721 849.88 350.113 849.88 340.254ZM870.408 340.475C870.408 346.361 871.732 351.731 874.381 356.586C877.029 361.294 880.561 365.046 884.976 367.842C889.536 370.639 894.54 372.036 899.985 372.036C905.724 372.036 910.801 370.639 915.216 367.842C919.776 365.046 923.308 361.294 925.811 356.586C928.312 351.731 929.563 346.361 929.563 340.475C929.563 334.588 928.312 329.292 925.811 324.584C923.308 319.728 919.776 315.903 915.216 313.107C910.801 310.165 905.724 308.693 899.985 308.693C894.392 308.693 889.315 310.165 884.755 313.107C880.34 316.049 876.809 319.949 874.16 324.805C871.657 329.512 870.408 334.736 870.408 340.475ZM996.427 295.451L998.19 317.742L997.31 314.211C1000.25 307.442 1005.04 302.072 1011.66 298.099C1018.28 293.978 1025.93 291.919 1034.61 291.919C1043.29 291.919 1050.36 294.495 1055.8 299.644C1061.39 304.647 1064.26 311.194 1064.41 319.287V386.823H1043.66V326.57C1043.51 321.567 1042.04 317.521 1039.25 314.431C1036.6 311.194 1032.41 309.576 1026.67 309.576C1021.37 309.576 1016.59 311.048 1012.32 313.99C1008.05 316.932 1004.67 320.98 1002.17 326.129C999.81 331.278 998.63 337.237 998.63 344.006V386.823H978.106V295.451H996.427ZM1142.49 389.03C1132.04 389.03 1123.07 386.971 1115.56 382.85C1108.06 378.584 1102.24 372.846 1098.12 365.635C1094.15 358.279 1092.16 349.892 1092.16 340.475C1092.16 331.499 1094.44 323.332 1099.01 315.976C1103.57 308.62 1109.67 302.734 1117.33 298.32C1124.98 293.906 1133.51 291.698 1142.93 291.698C1155 291.698 1165 295.23 1172.95 302.292C1180.9 309.355 1186.27 319.066 1189.06 331.426L1113.8 357.911L1108.94 345.772L1170.74 323.26L1166.33 326.129C1164.56 321.273 1161.62 317.08 1157.5 313.548C1153.38 309.869 1148.01 308.031 1141.39 308.031C1135.8 308.031 1130.79 309.428 1126.38 312.224C1121.96 314.873 1118.5 318.552 1116 323.26C1113.5 327.967 1112.25 333.339 1112.25 339.371C1112.25 345.699 1113.57 351.289 1116.22 356.145C1118.87 360.853 1122.48 364.605 1127.04 367.401C1131.75 370.049 1137.04 371.374 1142.93 371.374C1146.9 371.374 1150.73 370.639 1154.41 369.167C1158.23 367.695 1161.77 365.783 1165 363.428L1174.5 378.657C1169.93 381.747 1164.78 384.248 1159.04 386.161C1153.45 388.075 1147.94 389.03 1142.49 389.03Z" fill="#0F4B7D"/>
<path d="M627.963 389.03V229.459H671.446C687.191 229.459 700.583 231.887 711.619 236.742C722.803 241.598 731.778 247.998 738.548 255.944C745.318 263.889 750.247 272.718 753.337 282.429C756.575 291.992 758.193 301.557 758.193 311.121C758.193 323.187 756.059 334.001 751.792 343.565C747.671 353.128 741.932 361.294 734.575 368.063C727.218 374.832 718.755 380.054 709.191 383.733C699.773 387.265 689.767 389.03 679.172 389.03H627.963ZM649.373 368.505H674.978C683.807 368.505 691.901 367.18 699.258 364.532C706.763 361.883 713.237 358.058 718.682 353.055C724.274 348.052 728.615 341.947 731.705 334.736C734.796 327.38 736.341 319.066 736.341 309.796C736.341 299.938 734.723 291.33 731.485 283.974C728.247 276.47 723.832 270.217 718.241 265.214C712.65 260.21 706.322 256.458 699.258 253.958C692.195 251.309 684.763 249.985 676.965 249.985H649.373V368.505Z" fill="#0F4B7D"/>
<path d="M688.884 329.439C701.074 329.439 710.957 319.558 710.957 307.369C710.957 295.179 701.074 285.298 688.884 285.298C676.693 285.298 666.811 295.179 666.811 307.369C666.811 319.558 676.693 329.439 688.884 329.439Z" fill="#0F4B7D"/>
<path d="M697.713 311.783C705.027 311.783 710.957 305.854 710.957 298.54C710.957 291.227 705.027 285.298 697.713 285.298C690.399 285.298 684.469 291.227 684.469 298.54C684.469 305.854 690.399 311.783 697.713 311.783Z" fill="white"/>
<path d="M720 184C696.8 199.6 693 222.5 694 232H661V69.5C673.5 69.5 770 40 812.5 44.5C844.347 47.872 879 68.6667 892.5 77.5L756.5 109C767 110 936.5 91 1011.5 91C1058.33 91 1077.67 71.6667 1081.5 63V38H1102V63C1106 72.5 1171 107.5 1167.5 120.5C1153 143.5 749 164.5 720 184Z" fill="#0F4B7D"/>
<rect x="1075" y="6" width="33" height="19" fill="#0F4B7D"/>
<path d="M1306.98 0.101065C1291.34 -1.12709 1177.14 9.14164 1122 14.4295C1127.01 16.9882 1279.41 33.8753 1306.98 31.8284C1327.48 30.306 1326.53 1.63626 1306.98 0.101065Z" fill="#0F4B7D"/>
<path d="M876.023 0.101065C891.663 -1.12709 1005.86 9.14164 1061 14.4295C1055.99 16.9882 903.594 33.8753 876.023 31.8284C855.518 30.306 856.472 1.63626 876.023 0.101065Z" fill="#0F4B7D"/>
<path d="M602 184C625.2 199.6 629 222.5 628 232H661V69.5C648.5 69.5 552 40 509.5 44.5C477.653 47.872 443 68.6667 429.5 77.5L565.5 109C555 110 385.5 91 310.5 91C263.673 91 244.333 71.6667 240.5 63V38H220V63C216 72.5 151 107.5 154.5 120.5C169 143.5 573 164.5 602 184Z" fill="#0F4B7D"/>
<rect width="33" height="19" transform="matrix(-1 0 0 1 247 6)" fill="#0F4B7D"/>
<path d="M15.0228 0.101065C30.6632 -1.12709 144.858 9.14164 200 14.4295C194.987 16.9882 42.5939 33.8753 15.0228 31.8284C-5.48212 30.306 -4.52759 1.63626 15.0228 0.101065Z" fill="#0F4B7D"/>
<path d="M445.977 0.101065C430.337 -1.12709 316.142 9.14164 261 14.4295C266.013 16.9882 418.406 33.8753 445.977 31.8284C466.482 30.306 465.528 1.63626 445.977 0.101065Z" fill="#0F4B7D"/>
</svg>
